<svg width="30" height="24" viewBox="0 0 30 24" fill="none" xmlns="http://www.w3.org/2000/svg">
<g id="Group 4870">
<path id="Vector" d="M3.5389 7.82258C3.56568 7.82259 3.59247 7.8226 3.62006 7.82262C3.66625 7.82252 3.66625 7.82252 3.71336 7.82242C3.76471 7.82256 3.76471 7.82256 3.8171 7.82271C3.85315 7.82268 3.88919 7.82265 3.92633 7.82262C4.02684 7.82258 4.12734 7.82268 4.22785 7.82285C4.33606 7.82299 4.44427 7.82295 4.55249 7.82292C4.74012 7.8229 4.92776 7.82301 5.1154 7.82319C5.38669 7.82346 5.65798 7.82355 5.92928 7.82359C6.36939 7.82367 6.8095 7.82389 7.24961 7.8242C7.67724 7.82451 8.10488 7.82474 8.53251 7.82488C8.55885 7.82489 8.58519 7.8249 8.61233 7.82491C8.74447 7.82495 8.87661 7.825 9.00874 7.82504C10.1057 7.82538 11.2026 7.82597 12.2996 7.82671C12.2996 7.98583 12.2467 8.07723 12.1767 8.21134C11.8302 8.89905 11.5764 9.65193 11.439 10.4214C11.4334 10.4511 11.4278 10.4807 11.4221 10.5113C11.2385 11.5141 11.2504 12.5812 11.439 13.5816C11.4438 13.6083 11.4485 13.635 11.4534 13.6624C11.677 14.8978 12.216 16.0669 12.945 17.0413C12.9579 17.0585 12.9707 17.0758 12.9839 17.0937C13.3079 17.529 13.6704 17.9336 14.0823 18.2721C14.1076 18.2931 14.1076 18.2931 14.1336 18.3146C14.5714 18.6762 15.0279 18.984 15.5268 19.2368C15.5488 19.248 15.5707 19.2592 15.5933 19.2708C16.5666 19.7659 17.6109 20.0091 18.6849 20.0102C18.7086 20.0102 18.7322 20.0103 18.7566 20.0103C19.1615 20.0099 19.5538 19.9806 19.9527 19.9021C19.9774 19.8975 20.002 19.8928 20.0274 19.8881C21.0118 19.6994 21.9872 19.2882 22.8111 18.6713C22.8609 18.6346 22.8609 18.6346 22.9117 18.5972C23.1804 18.3965 23.4281 18.1743 23.6717 17.9394C23.6886 17.9232 23.7055 17.907 23.7229 17.8904C23.9137 17.7071 24.0922 17.5198 24.2557 17.3074C24.2798 17.2783 24.3039 17.2493 24.3287 17.2194C24.628 16.8554 24.8862 16.4472 25.1041 16.021C25.1179 15.994 25.1317 15.967 25.1459 15.9392C25.1564 15.9187 25.1669 15.8981 25.1777 15.877C25.1542 15.877 25.1306 15.877 25.1063 15.8771C24.5336 15.8778 23.9608 15.8783 23.388 15.8787C23.1111 15.8789 22.8341 15.8791 22.5571 15.8795C22.3158 15.8798 22.0744 15.88 21.8331 15.8801C21.7053 15.8801 21.5774 15.8802 21.4495 15.8805C21.3293 15.8807 21.2091 15.8808 21.0889 15.8807C21.0447 15.8807 21.0004 15.8808 20.9562 15.8809C20.896 15.8811 20.8359 15.881 20.7757 15.881C20.742 15.881 20.7082 15.881 20.6735 15.8811C20.5982 15.877 20.5982 15.877 20.5674 15.8437C20.5644 15.7933 20.5635 15.7427 20.5635 15.6922C20.5634 15.6594 20.5634 15.6267 20.5633 15.5929C20.5633 15.5567 20.5634 15.5205 20.5635 15.4832C20.5634 15.4453 20.5633 15.4073 20.5633 15.3683C20.5632 15.2423 20.5632 15.1162 20.5633 14.9902C20.5633 14.9031 20.5633 14.816 20.5633 14.7288C20.5632 14.5459 20.5633 14.363 20.5634 14.1801C20.5636 13.9684 20.5635 13.7567 20.5634 13.545C20.5632 13.3416 20.5632 13.1383 20.5633 12.935C20.5633 12.8483 20.5633 12.7616 20.5632 12.6749C20.5632 12.554 20.5633 12.4331 20.5635 12.3122C20.5634 12.2759 20.5633 12.2397 20.5633 12.2024C20.5634 12.1697 20.5634 12.1369 20.5635 12.1032C20.5635 12.0745 20.5636 12.0459 20.5636 12.0164C20.5674 11.9516 20.5674 11.9516 20.5982 11.9184C20.6468 11.9151 20.6957 11.9142 20.7444 11.9142C20.7763 11.9141 20.8081 11.914 20.8409 11.9139C20.8763 11.914 20.9117 11.9141 20.9482 11.9141C20.9855 11.9141 21.0228 11.914 21.0612 11.914C21.1651 11.9139 21.2691 11.9139 21.373 11.914C21.485 11.9141 21.5969 11.914 21.7088 11.9139C21.9282 11.9137 22.1477 11.9138 22.3671 11.9139C22.5454 11.9139 22.7236 11.914 22.9019 11.9139C22.9272 11.9139 22.9526 11.9139 22.9786 11.9139C23.0301 11.9139 23.0815 11.9139 23.1329 11.9139C23.6158 11.9138 24.0987 11.9139 24.5815 11.9141C24.9963 11.9142 25.4111 11.9142 25.8259 11.914C26.307 11.9139 26.788 11.9138 27.2691 11.9139C27.3204 11.9139 27.3716 11.9139 27.4229 11.9139C27.4607 11.9139 27.4607 11.9139 27.4993 11.9139C27.6774 11.914 27.8556 11.9139 28.0337 11.9138C28.2507 11.9137 28.4677 11.9138 28.6846 11.9139C28.7954 11.914 28.9062 11.9141 29.017 11.914C29.1369 11.9138 29.2567 11.914 29.3766 11.9141C29.412 11.9141 29.4474 11.914 29.4839 11.9139C29.5157 11.914 29.5475 11.9141 29.5803 11.9142C29.608 11.9142 29.6357 11.9142 29.6643 11.9142C29.7266 11.9184 29.7266 11.9184 29.7573 11.9516C29.7663 12.1011 29.7649 12.251 29.765 12.4007C29.765 12.4345 29.765 12.4345 29.7651 12.4689C29.7644 12.9119 29.7297 13.3437 29.6651 13.7812C29.6572 13.8353 29.6572 13.8353 29.6491 13.8905C29.3882 15.6262 28.7946 17.3316 27.8517 18.7711C27.8311 18.8028 27.8104 18.8345 27.7891 18.8672C27.7289 18.958 27.6677 19.0476 27.6058 19.137C27.5826 19.1707 27.5593 19.2045 27.5353 19.2392C26.9954 20.0141 26.3749 20.7319 25.6695 21.3325C25.6288 21.368 25.588 21.4035 25.5473 21.4391C24.0129 22.7663 22.1408 23.5984 20.2005 23.8898C20.1776 23.8932 20.1547 23.8967 20.131 23.9002C19.6638 23.9694 19.199 24.0008 18.7271 24C18.7052 24 18.6833 23.9999 18.6608 23.9999C18.2491 23.9989 17.8417 23.978 17.4324 23.9272C17.4004 23.9233 17.3684 23.9193 17.3354 23.9153C16.3541 23.7889 15.3917 23.5121 14.4818 23.0956C14.4622 23.0867 14.4426 23.0778 14.4225 23.0686C14.1079 22.9249 13.8009 22.7677 13.4983 22.5966C13.4773 22.5848 13.4563 22.5731 13.4347 22.5609C13.1323 22.3898 12.8451 22.1979 12.5608 21.9937C12.5304 21.9718 12.4999 21.95 12.4686 21.9275C12.2955 21.8013 12.1299 21.6688 11.9683 21.5257C11.9005 21.466 11.8314 21.4084 11.7617 21.3512C11.6348 21.2449 11.5159 21.1307 11.3976 21.0134C11.3332 20.9501 11.2679 20.8885 11.202 20.8272C11.0538 20.6871 10.915 20.5374 10.7763 20.3865C10.7513 20.3597 10.7264 20.3328 10.7007 20.3051C10.5511 20.1429 10.4077 19.9773 10.2711 19.8023C10.2552 19.782 10.2393 19.7617 10.2229 19.7408C9.83197 19.2365 9.49142 18.7013 9.1728 18.141C9.14041 18.084 9.10764 18.0273 9.07477 17.9707C8.74129 17.3786 8.49729 16.7242 8.27325 16.0766C8.2568 16.0292 8.2568 16.0292 8.24001 15.9809C7.8299 14.7815 7.61708 13.4661 7.62588 12.1887C7.62602 12.1495 7.62616 12.1103 7.6263 12.07C7.62666 11.9751 7.62716 11.8802 7.62781 11.7853C7.58934 11.7864 7.58934 11.7864 7.5501 11.7874C6.36627 11.8153 5.39418 11.5574 4.50408 10.6664C3.87437 9.98594 3.45175 9.01893 3.44202 8.05125C3.44325 7.82912 3.44325 7.82912 3.5389 7.82258Z" fill="#2563EB"/>
<path id="Vector_2" d="M0.161372 0.0043726C0.188596 0.0042808 0.215819 0.00418899 0.243868 0.0040944C0.289336 0.00419696 0.289336 0.00419696 0.335724 0.00430159C0.367745 0.00424327 0.399767 0.00418496 0.432759 0.00412488C0.541511 0.00396847 0.650262 0.00405223 0.759014 0.00413266C0.8372 0.00407059 0.915386 0.00399408 0.993571 0.00390428C1.16433 0.00374249 1.33508 0.00368577 1.50584 0.00371986C1.7598 0.00377043 2.01375 0.00363249 2.2677 0.00345791C2.7478 0.00313544 3.2279 0.00304258 3.708 0.00302356C4.07907 0.00300828 4.45014 0.00293987 4.82121 0.00283392C4.92795 0.00280406 5.0347 0.00277446 5.14144 0.00274494C5.16797 0.00273759 5.19451 0.00273023 5.22185 0.00272266C5.9689 0.00251776 6.71595 0.00238667 7.463 0.00240142C7.4912 0.00240194 7.51939 0.00240246 7.54844 0.00240299C7.69135 0.00240576 7.83425 0.00240905 7.97716 0.00241246C8.00554 0.00241313 8.03392 0.00241379 8.06317 0.00241447C8.12056 0.00241582 8.17796 0.00241721 8.23535 0.00241865C9.12673 0.00243899 10.0181 0.00219006 10.9095 0.00173429C11.911 0.00122243 12.9124 0.000937098 13.9139 0.000967958C14.0209 0.00097044 14.1279 0.000972061 14.2349 0.000973092C14.2612 0.000973479 14.2875 0.000973867 14.3147 0.000974266C14.7374 0.000975287 15.1601 0.000763423 15.5828 0.000476362C16.0086 0.000193259 16.4343 0.000162328 16.8601 0.000380202C17.1125 0.000502442 17.3649 0.000444283 17.6173 0.000115996C17.8067 -0.000109248 17.996 1.98781e-05 18.1853 0.000278107C18.2613 0.000328814 18.3373 0.000270115 18.4133 8.31684e-05C19.0876 -0.00146427 19.7583 0.0350834 20.4252 0.14788C20.4461 0.151365 20.467 0.15485 20.4885 0.158441C21.591 0.344288 22.6674 0.723281 23.6582 1.27995C23.7516 1.3323 23.8457 1.38163 23.9406 1.43068C24.7375 1.86371 25.4447 2.45317 26.1113 3.08826C26.1554 3.13007 26.2001 3.17125 26.2449 3.21234C26.2674 3.23296 26.2898 3.25359 26.313 3.27484C26.341 3.30024 26.341 3.30024 26.3695 3.32617C26.4071 3.3684 26.4071 3.3684 26.4071 3.43493C26.4347 3.44831 26.4347 3.44831 26.4628 3.46196C26.53 3.50143 26.5735 3.53792 26.6223 3.60126C26.6223 3.62321 26.6223 3.64517 26.6223 3.66779C26.6407 3.67658 26.6591 3.68537 26.6781 3.69442C26.7486 3.73635 26.7843 3.7738 26.8355 3.84035C26.9074 3.9326 26.9796 4.02443 27.0534 4.11492C27.6921 4.89971 28.2329 5.78412 28.6515 6.72717C28.6824 6.79663 28.7136 6.86585 28.7449 6.93508C28.8505 7.171 28.9494 7.40888 29.0369 7.65341C29.0491 7.68654 29.0491 7.68654 29.0615 7.72033C29.1021 7.83794 29.1154 7.90635 29.0811 8.02557C28.5756 8.04194 28.0702 8.05423 27.5645 8.06176C27.3297 8.06535 27.095 8.07024 26.8603 8.07827C26.6555 8.08527 26.4508 8.08975 26.2458 8.0913C26.1374 8.0922 26.0293 8.0943 25.921 8.09943C25.2653 8.12929 25.2653 8.12929 25.0696 7.95779C24.9353 7.79278 24.8436 7.60978 24.7569 7.41206C24.6975 7.28641 24.6207 7.17981 24.538 7.07126C24.5244 7.05297 24.5109 7.03468 24.4969 7.01583C24.3255 6.78676 24.1436 6.56778 23.9483 6.36229C23.7946 6.19596 23.7946 6.19596 23.749 6.14425C22.6009 4.8602 20.7578 4.0464 19.1177 3.9985C18.9248 3.99525 18.7319 3.99573 18.539 3.99585C18.4734 3.99577 18.4078 3.99567 18.3422 3.99557C18.1625 3.99531 17.9828 3.99525 17.8031 3.99523C17.6091 3.99517 17.4151 3.99492 17.221 3.99468C16.9067 3.99432 16.5924 3.99405 16.2782 3.99386C15.7474 3.99352 15.2167 3.99288 14.6859 3.99214C14.4815 3.99186 14.277 3.99158 14.0725 3.99131C14.0498 3.99127 14.0271 3.99124 14.0037 3.99121C13.4635 3.99048 12.9232 3.98982 12.383 3.9892C12.3594 3.98917 12.3357 3.98915 12.3114 3.98912C11.7603 3.98848 11.2092 3.98792 10.658 3.98751C10.6225 3.98748 10.6225 3.98748 10.5862 3.98746C10.3952 3.98732 10.2042 3.98718 10.0132 3.98704C9.22472 3.98647 8.43628 3.98556 7.64785 3.98427C7.5364 3.98409 7.42495 3.98391 7.3135 3.98374C7.29157 3.9837 7.26964 3.98367 7.24704 3.98363C6.89485 3.98309 6.54265 3.98291 6.19045 3.98286C5.8362 3.98281 5.48196 3.9824 5.12771 3.98164C4.93598 3.98124 4.74425 3.981 4.55252 3.9812C4.37675 3.98138 4.20098 3.98109 4.02521 3.98045C3.96188 3.9803 3.89855 3.98031 3.83522 3.98051C2.77478 3.9836 1.85008 3.63917 1.0811 2.83615C1.04787 2.80334 1.04787 2.80334 1.01398 2.76988C0.683902 2.43491 0.466497 2.01346 0.281973 1.57206C0.267116 1.53771 0.252258 1.50336 0.236951 1.46797C0.147086 1.24123 0.099156 1.01099 0.0572203 0.769529C0.051941 0.739378 0.0466616 0.709227 0.0412223 0.678163C0.00733923 0.466589 -0.00932667 0.256588 0.00535427 0.0418462C0.0525902 -0.00927805 0.0955176 0.00439962 0.161372 0.0043726Z" fill="#2563EB"/>
</g>
</svg>
