<svg width="16" height="16" viewBox="0 0 16 16" fill="none" xmlns="http://www.w3.org/2000/svg">
<g id="SVG">
<path id="Vector" d="M9.99967 1.33334H5.99967C5.63148 1.33334 5.33301 1.63182 5.33301 2.00001V3.33334C5.33301 3.70153 5.63148 4.00001 5.99967 4.00001H9.99967C10.3679 4.00001 10.6663 3.70153 10.6663 3.33334V2.00001C10.6663 1.63182 10.3679 1.33334 9.99967 1.33334Z" stroke="#6B6B6B" stroke-width="1.6" stroke-linecap="round" stroke-linejoin="round"/>
<path id="Vector_2" d="M10.667 2.66666H12.0003C12.3539 2.66666 12.6931 2.80713 12.9431 3.05718C13.1932 3.30723 13.3337 3.64637 13.3337 3.99999V13.3333C13.3337 13.6869 13.1932 14.0261 12.9431 14.2761C12.6931 14.5262 12.3539 14.6667 12.0003 14.6667H4.00033C3.6467 14.6667 3.30756 14.5262 3.05752 14.2761C2.80747 14.0261 2.66699 13.6869 2.66699 13.3333V3.99999C2.66699 3.64637 2.80747 3.30723 3.05752 3.05718C3.30756 2.80713 3.6467 2.66666 4.00033 2.66666H5.33366" stroke="#6B6B6B" stroke-width="1.6" stroke-linecap="round" stroke-linejoin="round"/>
<path id="Vector_3" d="M8 7.33334H10.6667" stroke="#6B6B6B" stroke-width="1.6" stroke-linecap="round" stroke-linejoin="round"/>
<path id="Vector_4" d="M8 10.6667H10.6667" stroke="#6B6B6B" stroke-width="1.6" stroke-linecap="round" stroke-linejoin="round"/>
<path id="Vector_5" d="M5.33301 7.33334H5.34101" stroke="#6B6B6B" stroke-width="1.6" stroke-linecap="round" stroke-linejoin="round"/>
<path id="Vector_6" d="M5.33301 10.6667H5.34101" stroke="#6B6B6B" stroke-width="1.6" stroke-linecap="round" stroke-linejoin="round"/>
</g>
</svg>
