<svg width="19" height="19" viewBox="0 0 19 19" fill="none" xmlns="http://www.w3.org/2000/svg">
<g id="Frame">
<path id="Vector" d="M15.0413 13.4583H16.6247C17.0997 13.4583 17.4163 13.1417 17.4163 12.6667V10.2917C17.4163 9.57916 16.8622 8.94582 16.2288 8.78749C14.8038 8.39166 12.6663 7.91666 12.6663 7.91666C12.6663 7.91666 11.6372 6.80832 10.9247 6.09582C10.5288 5.77916 10.0538 5.54166 9.49967 5.54166H3.95801C3.48301 5.54166 3.08717 5.85832 2.84967 6.25416L1.74134 8.54999C1.63651 8.85575 1.58301 9.17676 1.58301 9.49999V12.6667C1.58301 13.1417 1.89967 13.4583 2.37467 13.4583H3.95801" stroke="#2563EB" stroke-width="1.6" stroke-linecap="round" stroke-linejoin="round"/>
<path id="Vector_2" d="M5.54134 15.0417C6.41579 15.0417 7.12467 14.3328 7.12467 13.4583C7.12467 12.5839 6.41579 11.875 5.54134 11.875C4.66689 11.875 3.95801 12.5839 3.95801 13.4583C3.95801 14.3328 4.66689 15.0417 5.54134 15.0417Z" stroke="#2563EB" stroke-width="1.6" stroke-linecap="round" stroke-linejoin="round"/>
<path id="Vector_3" d="M7.125 13.4583H11.875" stroke="#2563EB" stroke-width="1.6" stroke-linecap="round" stroke-linejoin="round"/>
<path id="Vector_4" d="M13.4583 15.0417C14.3328 15.0417 15.0417 14.3328 15.0417 13.4583C15.0417 12.5839 14.3328 11.875 13.4583 11.875C12.5839 11.875 11.875 12.5839 11.875 13.4583C11.875 14.3328 12.5839 15.0417 13.4583 15.0417Z" stroke="#2563EB" stroke-width="1.6" stroke-linecap="round" stroke-linejoin="round"/>
</g>
</svg>
