<svg width="12" height="10" viewBox="0 0 12 10" fill="none" xmlns="http://www.w3.org/2000/svg">
<g id="Group 5281">
<path id="Vector" d="M9.16875 3.25035C8.50367 2.16203 7.59638 1.2419 6.5175 0.561602C6.01909 0.245717 5.45093 0.0566427 4.86263 0.0108857C4.27432 -0.0348713 3.68376 0.0640806 3.1425 0.299102C2.66906 0.522416 2.2571 0.857616 1.94219 1.27576C1.62728 1.6939 1.41888 2.18241 1.335 2.6991C1.305 2.87535 1.2825 3.0441 1.26 3.2091C0.908904 3.26601 0.589454 3.44582 0.358662 3.71646C0.127869 3.98709 0.000753104 4.33092 0 4.6866V6.98535C0 7.18426 0.0790176 7.37503 0.21967 7.51568C0.360322 7.65633 0.551088 7.73535 0.75 7.73535V5.4366V4.6866C0.75 4.48769 0.829018 4.29692 0.96967 4.15627C1.11032 4.01562 1.30109 3.9366 1.5 3.9366H8.52375C9.24649 3.93759 9.93935 4.22514 10.4504 4.7362C10.9615 5.24725 11.249 5.94011 11.25 6.66285V6.9366H10.5C10.3416 6.55039 10.0466 6.23602 9.67121 6.05346C9.29582 5.87091 8.86636 5.83296 8.46478 5.94685C8.0632 6.06074 7.71761 6.3185 7.49395 6.67095C7.27029 7.02339 7.18423 7.44585 7.25219 7.8577C7.32014 8.26955 7.53736 8.64196 7.86238 8.90388C8.18741 9.16579 8.59749 9.29887 9.01437 9.27771C9.43126 9.25656 9.82576 9.08265 10.1226 8.78918C10.4194 8.49571 10.5978 8.10322 10.6237 7.6866H11.25C11.4489 7.6866 11.6397 7.60758 11.7803 7.46693C11.921 7.32628 12 7.13551 12 6.9366V6.66285C11.9985 5.85357 11.715 5.07013 11.1982 4.4473C10.6815 3.82448 9.96384 3.40122 9.16875 3.25035ZM3.375 3.1866H1.84875C1.84875 3.07035 1.8825 2.95035 1.905 2.8116C1.96979 2.39965 2.13887 2.01111 2.39616 1.68293C2.65346 1.35475 2.99041 1.09783 3.375 0.936602V3.1866ZM4.125 3.1866V0.779102C4.82511 0.688187 5.53513 0.841848 6.135 1.2141C6.9539 1.72417 7.66069 2.39523 8.2125 3.1866H4.125ZM8.925 8.5791C8.73958 8.5791 8.55832 8.52412 8.40415 8.4211C8.24998 8.31809 8.12982 8.17167 8.05886 8.00037C7.98791 7.82906 7.96934 7.64056 8.00551 7.4587C8.04169 7.27685 8.13098 7.1098 8.26209 6.97869C8.3932 6.84758 8.56025 6.75829 8.7421 6.72212C8.92396 6.68594 9.11246 6.70451 9.28377 6.77546C9.45507 6.84642 9.60149 6.96658 9.7045 7.12075C9.80752 7.27492 9.8625 7.45618 9.8625 7.6416C9.8625 7.89024 9.76373 8.1287 9.58791 8.30451C9.4121 8.48033 9.17364 8.5791 8.925 8.5791Z" fill="#525C7B"/>
<path id="Vector_2" d="M4.56369 6.93488C4.40531 6.54868 4.11028 6.2343 3.7349 6.05175C3.35951 5.86919 2.93005 5.83124 2.52847 5.94513C2.12689 6.05902 1.7813 6.31678 1.55764 6.66923C1.33399 7.02168 1.24792 7.44413 1.31588 7.85598C1.38384 8.26783 1.60105 8.64025 1.92608 8.90216C2.2511 9.16407 2.66118 9.29715 3.07806 9.27599C3.49495 9.25484 3.88945 9.08093 4.18629 8.78746C4.48313 8.49399 4.66153 8.1015 4.68744 7.68488H6.67494C6.67494 7.65488 6.67494 7.62113 6.67494 7.59113C6.66752 7.36989 6.69279 7.14875 6.74994 6.93488H4.56369ZM2.99994 8.57738C2.81452 8.57738 2.63327 8.5224 2.47909 8.41939C2.32492 8.31637 2.20476 8.16996 2.1338 7.99865C2.06285 7.82734 2.04428 7.63884 2.08045 7.45699C2.11663 7.27513 2.20592 7.10808 2.33703 6.97697C2.46814 6.84586 2.63519 6.75657 2.81704 6.7204C2.9989 6.68422 3.1874 6.70279 3.35871 6.77375C3.53001 6.8447 3.67643 6.96487 3.77944 7.11904C3.88246 7.27321 3.93744 7.45446 3.93744 7.63988C3.93744 7.88852 3.83867 8.12698 3.66285 8.3028C3.48704 8.47861 3.24858 8.57738 2.99994 8.57738Z" fill="#525C7B"/>
</g>
</svg>
