<svg width="14" height="14" viewBox="0 0 14 14" fill="none" xmlns="http://www.w3.org/2000/svg">
<path id="Vector" d="M0.777778 5.61728H13.2222M3.54321 0.777778V2.16049M10.4568 0.777778V2.16049M2.99012 13.2222H11.0099C11.7843 13.2222 12.1715 13.2222 12.4673 13.0715C12.7274 12.939 12.939 12.7274 13.0715 12.4673C13.2222 12.1715 13.2222 11.7843 13.2222 11.0099V4.37284C13.2222 3.59844 13.2222 3.21125 13.0715 2.91547C12.939 2.65529 12.7274 2.44376 12.4673 2.3112C12.1715 2.16049 11.7843 2.16049 11.0099 2.16049H2.99012C2.21573 2.16049 1.82853 2.16049 1.53275 2.3112C1.27258 2.44376 1.06105 2.65529 0.928487 2.91547C0.777778 3.21125 0.777778 3.59844 0.777778 4.37284V11.0099C0.777778 11.7843 0.777778 12.1715 0.928487 12.4673C1.06105 12.7274 1.27258 12.939 1.53275 13.0715C1.82853 13.2222 2.21573 13.2222 2.99012 13.2222Z" stroke="#2563EB" stroke-width="1.5" stroke-linecap="round" stroke-linejoin="round"/>
</svg>
