<svg width="16" height="16" viewBox="0 0 16 16" fill="none" xmlns="http://www.w3.org/2000/svg">
<g id="SVG">
<path id="Vector" d="M10.0002 1.33331H6.00016C5.63197 1.33331 5.3335 1.63179 5.3335 1.99998V3.33331C5.3335 3.7015 5.63197 3.99998 6.00016 3.99998H10.0002C10.3684 3.99998 10.6668 3.7015 10.6668 3.33331V1.99998C10.6668 1.63179 10.3684 1.33331 10.0002 1.33331Z" stroke="#1249BF" stroke-width="1.33333" stroke-linecap="round" stroke-linejoin="round"/>
<path id="Vector_2" d="M10.6665 2.66669H11.9998C12.3535 2.66669 12.6926 2.80716 12.9426 3.05721C13.1927 3.30726 13.3332 3.6464 13.3332 4.00002V13.3334C13.3332 13.687 13.1927 14.0261 12.9426 14.2762C12.6926 14.5262 12.3535 14.6667 11.9998 14.6667H3.99984C3.64622 14.6667 3.30708 14.5262 3.05703 14.2762C2.80698 14.0261 2.6665 13.687 2.6665 13.3334V4.00002C2.6665 3.6464 2.80698 3.30726 3.05703 3.05721C3.30708 2.80716 3.64622 2.66669 3.99984 2.66669H5.33317" stroke="#1249BF" stroke-width="1.33333" stroke-linecap="round" stroke-linejoin="round"/>
<path id="Vector_3" d="M8 7.33331H10.6667" stroke="#1249BF" stroke-width="1.33333" stroke-linecap="round" stroke-linejoin="round"/>
<path id="Vector_4" d="M8 10.6667H10.6667" stroke="#1249BF" stroke-width="1.33333" stroke-linecap="round" stroke-linejoin="round"/>
<path id="Vector_5" d="M5.3335 7.33331H5.34016" stroke="#1249BF" stroke-width="1.33333" stroke-linecap="round" stroke-linejoin="round"/>
<path id="Vector_6" d="M5.3335 10.6667H5.34016" stroke="#1249BF" stroke-width="1.33333" stroke-linecap="round" stroke-linejoin="round"/>
</g>
</svg>
