<svg width="13" height="15" viewBox="0 0 13 15" fill="none" xmlns="http://www.w3.org/2000/svg">
<g id="Frame" clip-path="url(#clip0_3311_288)">
<path id="Vector" d="M6.24257 1.40187C6.2663 1.34781 6.30297 1.3023 6.34844 1.27049C6.3939 1.23867 6.44635 1.22181 6.49986 1.22181C6.55337 1.22181 6.60582 1.23867 6.65128 1.27049C6.69674 1.3023 6.73341 1.34781 6.75715 1.40187L8.00841 4.25891C8.09072 4.44705 8.21237 4.60982 8.36287 4.73321C8.51338 4.8566 8.68823 4.93691 8.87237 4.96722L11.6706 5.42884C11.7237 5.4375 11.7735 5.46271 11.8144 5.50162C11.8554 5.54053 11.8859 5.59159 11.9025 5.64903C11.919 5.70646 11.921 5.76797 11.9082 5.82661C11.8954 5.88525 11.8682 5.93867 11.8299 5.98083L9.80621 8.20222C9.67263 8.34874 9.5727 8.5297 9.51504 8.72949C9.45738 8.92928 9.44372 9.14188 9.47525 9.34895L9.953 12.4875C9.96236 12.5472 9.95663 12.6087 9.93648 12.665C9.91632 12.7212 9.88254 12.7699 9.839 12.8056C9.79546 12.8413 9.7439 12.8624 9.69022 12.8666C9.63653 12.8708 9.58288 12.8579 9.53537 12.8294L7.03394 11.3469C6.86915 11.2492 6.68577 11.1982 6.49959 11.1982C6.31341 11.1982 6.13002 11.2492 5.96523 11.3469L3.46434 12.8294C3.41686 12.8578 3.36327 12.8705 3.30967 12.8662C3.25608 12.8619 3.20462 12.8408 3.16117 12.8051C3.11772 12.7695 3.084 12.7208 3.06386 12.6647C3.04373 12.6085 3.03797 12.5471 3.04726 12.4875L3.52447 9.34956C3.55609 9.1424 3.54248 8.92967 3.48481 8.72977C3.42715 8.52987 3.32717 8.3488 3.19351 8.20222L1.16983 5.98144C1.13116 5.93933 1.10375 5.88582 1.09073 5.827C1.07771 5.76819 1.07961 5.70643 1.09621 5.64877C1.11281 5.59112 1.14344 5.53987 1.18461 5.50088C1.22578 5.46189 1.27584 5.43671 1.32908 5.42823L4.12681 4.96722C4.31114 4.93709 4.48621 4.85687 4.63692 4.73347C4.78762 4.61008 4.90943 4.44721 4.99185 4.25891L6.24257 1.40187Z" fill="#0558FE" stroke="#0558FE" stroke-width="2" stroke-linecap="round" stroke-linejoin="round"/>
</g>
<defs>
<clipPath id="clip0_3311_288">
<rect width="12.5171" height="14.1102" fill="white" transform="scale(1.03858)"/>
</clipPath>
</defs>
</svg>
