<svg width="107" height="60" viewBox="0 0 107 60" fill="none" xmlns="http://www.w3.org/2000/svg">
<g id="upload_icon-4x7YzYOE 1" clip-path="url(#clip0_45_5)">
<path id="Vector" d="M104.325 0H2.675C1.19764 0 0 1.19391 0 2.66667V57.3333C0 58.8061 1.19764 60 2.675 60H104.325C105.802 60 107 58.8061 107 57.3333V2.66667C107 1.19391 105.802 0 104.325 0Z" fill="#F8F8F8"/>
<path id="Vector_2" d="M104.325 0.166672H2.6748C1.28978 0.166672 0.166992 1.28596 0.166992 2.66667V57.3333C0.166992 58.7141 1.28978 59.8333 2.6748 59.8333H104.325C105.71 59.8333 106.833 58.7141 106.833 57.3333V2.66667C106.833 1.28596 105.71 0.166672 104.325 0.166672Z" stroke="black" stroke-opacity="0.2" stroke-dasharray="2 2"/>
<path id="Vector_3" d="M60.8883 20.8387C60.8883 20.8387 61.2806 15.924 56.4408 15.3636C52.2932 14.9695 51.0303 18.5559 51.0303 18.5559C51.0303 18.5559 49.7814 17.4384 48.0868 18.3513C46.5694 19.2226 46.8379 20.8179 46.8379 20.8179C46.8379 20.8179 43.4688 21.4273 43.4688 24.6224C43.5437 27.8137 47.1265 27.8457 47.1265 27.8457H52.7764V24.4729H50.9638L53.9848 21.6623L57.0059 24.4729H55.1933V27.8457H60.3089C60.3089 27.8457 63.6443 27.8491 64.1124 24.813C64.3354 21.4931 60.8883 20.8387 60.8883 20.8387Z" fill="#BEC4D5"/>
<path id="Vector_4" d="M42.5724 33.988V36.928C42.5724 37.3413 42.6727 37.648 42.8734 37.848C43.0783 38.048 43.3616 38.148 43.7227 38.148C44.0795 38.148 44.358 38.048 44.5586 37.848C44.7636 37.648 44.8662 37.3413 44.8662 36.928V33.988H45.4748V36.9213C45.4748 37.308 45.3969 37.6347 45.2407 37.9013C45.0846 38.1637 44.8729 38.3593 44.6054 38.488C44.3423 38.617 44.046 38.6813 43.716 38.6813C43.386 38.6813 43.0874 38.617 42.8199 38.488C42.5567 38.3593 42.3474 38.1637 42.1912 37.9013C42.0398 37.6347 41.9639 37.308 41.9639 36.9213V33.988H42.5724ZM47.0985 35.6547C47.2189 35.446 47.3971 35.2727 47.6335 35.1347C47.8743 34.9927 48.1528 34.9213 48.4695 34.9213C48.7948 34.9213 49.0891 34.9993 49.3522 35.1547C49.6197 35.3103 49.8294 35.5303 49.9808 35.8147C50.1323 36.0947 50.2082 36.4213 50.2082 36.7947C50.2082 37.1637 50.1323 37.4927 49.9808 37.7813C49.8294 38.0703 49.6197 38.2947 49.3522 38.4547C49.0891 38.6147 48.7948 38.6947 48.4695 38.6947C48.1575 38.6947 47.881 38.626 47.6402 38.488C47.4038 38.346 47.2233 38.1703 47.0985 37.9613V40.368H46.49V34.9813H47.0985V35.6547ZM49.5863 36.7947C49.5863 36.5193 49.5304 36.2793 49.4191 36.0747C49.3077 35.8703 49.1559 35.7147 48.9643 35.608C48.7771 35.5013 48.5698 35.448 48.3424 35.448C48.1194 35.448 47.9121 35.5037 47.7205 35.6147C47.5332 35.7213 47.3817 35.8793 47.2657 36.088C47.1544 36.2927 47.0985 36.5303 47.0985 36.8013C47.0985 37.077 47.1544 37.3193 47.2657 37.528C47.3817 37.7327 47.5332 37.8903 47.7205 38.0013C47.9121 38.108 48.1194 38.1613 48.3424 38.1613C48.5698 38.1613 48.7771 38.108 48.9643 38.0013C49.1559 37.8903 49.3077 37.7327 49.4191 37.528C49.5304 37.3193 49.5863 37.0747 49.5863 36.7947ZM51.6179 33.7013V38.6347H51.0094V33.7013H51.6179ZM54.2535 38.6947C53.9101 38.6947 53.5981 38.617 53.3172 38.4613C53.0407 38.306 52.8224 38.086 52.6619 37.8013C52.5057 37.5127 52.4278 37.1793 52.4278 36.8013C52.4278 36.428 52.5081 36.0993 52.6686 35.8147C52.8334 35.526 53.0564 35.306 53.3373 35.1547C53.6182 34.9993 53.9325 34.9213 54.2802 34.9213C54.628 34.9213 54.9423 34.9993 55.2232 35.1547C55.5041 35.306 55.7247 35.5237 55.8852 35.808C56.0501 36.0927 56.1327 36.4237 56.1327 36.8013C56.1327 37.1793 56.0477 37.5127 55.8785 37.8013C55.7134 38.086 55.4883 38.306 55.2031 38.4613C54.9176 38.617 54.6012 38.6947 54.2535 38.6947ZM54.2535 38.1613C54.4718 38.1613 54.6768 38.1103 54.8687 38.008C55.0603 37.906 55.2141 37.7527 55.3302 37.548C55.4505 37.3437 55.5107 37.0947 55.5107 36.8013C55.5107 36.508 55.4526 36.2593 55.3369 36.0547C55.2208 35.8503 55.0694 35.6993 54.8821 35.6013C54.6949 35.4993 54.4919 35.448 54.2735 35.448C54.0505 35.448 53.8455 35.4993 53.6583 35.6013C53.4754 35.6993 53.3283 35.8503 53.2169 36.0547C53.1052 36.2593 53.0497 36.508 53.0497 36.8013C53.0497 37.0993 53.1032 37.3503 53.2102 37.5547C53.3216 37.7593 53.4687 37.9127 53.6516 38.0147C53.8342 38.1127 54.0348 38.1613 54.2535 38.1613ZM56.7055 36.7947C56.7055 36.4213 56.781 36.0947 56.9328 35.8147C57.0843 35.5303 57.2916 35.3103 57.5548 35.1547C57.8223 34.9993 58.1185 34.9213 58.4442 34.9213C58.7652 34.9213 59.0437 34.9903 59.2801 35.128C59.5162 35.266 59.6924 35.4393 59.8085 35.648V34.9813H60.4237V38.6347H59.8085V37.9547C59.6881 38.168 59.5075 38.346 59.2668 38.488C59.0304 38.626 58.7538 38.6947 58.4375 38.6947C58.1118 38.6947 57.8176 38.6147 57.5548 38.4547C57.2916 38.2947 57.0843 38.0703 56.9328 37.7813C56.781 37.4927 56.7055 37.1637 56.7055 36.7947ZM59.8085 36.8013C59.8085 36.526 59.7526 36.286 59.6413 36.0813C59.5296 35.877 59.3781 35.7213 59.1865 35.6147C58.9993 35.5037 58.792 35.448 58.5646 35.448C58.3372 35.448 58.1299 35.5013 57.9426 35.608C57.7554 35.7147 57.6059 35.8703 57.4946 36.0747C57.3829 36.2793 57.3274 36.5193 57.3274 36.7947C57.3274 37.0747 57.3829 37.3193 57.4946 37.528C57.6059 37.7327 57.7554 37.8903 57.9426 38.0013C58.1299 38.108 58.3372 38.1613 58.5646 38.1613C58.792 38.1613 58.9993 38.108 59.1865 38.0013C59.3781 37.8903 59.5296 37.7327 59.6413 37.528C59.7526 37.3193 59.8085 37.077 59.8085 36.8013ZM61.2245 36.7947C61.2245 36.4213 61.3004 36.0947 61.4519 35.8147C61.6037 35.5303 61.811 35.3103 62.0738 35.1547C62.3413 34.9993 62.6403 34.9213 62.97 34.9213C63.2555 34.9213 63.5207 34.988 63.7658 35.1213C64.0112 35.2503 64.1985 35.4213 64.3275 35.6347V33.7013H64.9428V38.6347H64.3275V37.948C64.2072 38.166 64.0289 38.346 63.7925 38.488C63.5565 38.626 63.2799 38.6947 62.9633 38.6947C62.6379 38.6947 62.3413 38.6147 62.0738 38.4547C61.811 38.2947 61.6037 38.0703 61.4519 37.7813C61.3004 37.4927 61.2245 37.1637 61.2245 36.7947ZM64.3275 36.8013C64.3275 36.526 64.272 36.286 64.1603 36.0813C64.049 35.877 63.8975 35.7213 63.7056 35.6147C63.5183 35.5037 63.311 35.448 63.0837 35.448C62.8563 35.448 62.649 35.5013 62.4617 35.608C62.2745 35.7147 62.1253 35.8703 62.0137 36.0747C61.9023 36.2793 61.8465 36.5193 61.8465 36.7947C61.8465 37.0747 61.9023 37.3193 62.0137 37.528C62.1253 37.7327 62.2745 37.8903 62.4617 38.0013C62.649 38.108 62.8563 38.1613 63.0837 38.1613C63.311 38.1613 63.5183 38.108 63.7056 38.0013C63.8975 37.8903 64.049 37.7327 64.1603 37.528C64.272 37.3193 64.3275 37.077 64.3275 36.8013Z" fill="#7B7B7B"/>
</g>
<defs>
<clipPath id="clip0_45_5">
<rect width="107" height="60" fill="white"/>
</clipPath>
</defs>
</svg>
